<svg enable-background="new 0 0 451.2 190.57" viewBox="0 0 451.2 190.57" xmlns="http://www.w3.org/2000/svg" xmlns:xlink="http://www.w3.org/1999/xlink"><linearGradient id="a" gradientUnits="userSpaceOnUse" x1="81.5025" x2="395.1713" y1="36.6547" y2="36.6547"><stop offset="0" stop-color="#e73f0c"/><stop offset=".34" stop-color="#f39400"/><stop offset=".5" stop-color="#ffd800"/><stop offset=".59" stop-color="#ffe963"/><stop offset=".64" stop-color="#fffdec"/><stop offset=".71" stop-color="#fffdec"/><stop offset=".81" stop-color="#ffe162"/><stop offset=".87" stop-color="#f7a600"/><stop offset=".95" stop-color="#e73f0c"/><stop offset="1" stop-color="#e73f0c"/></linearGradient><path d="m81.5 71.73 1.82 1.58c25.74-29.64 85.02-56.8 155.67-56.8h-.42c71.4.01 125.54 22.91 154.3 52.82h2.3c-24.64-35.64-81.65-69.33-156.59-69.33h.42c-74.99 0-132.07 34.66-157.5 71.73z" fill="url(#a)"/><g fill="#00512c"><path d="m199.9 164.85c5.95 0 12.03-3.88 16.08-7.73 1.06-1.01 1.98-2.01 2.73-2.94-.02.11-.05.22-.06.3-1.49 7.58 2.94 10.39 7.54 10.39 4.85 0 9.31-1.04 13.9-3.89.25-.15.23-.71-.02-.84-3.49-1.76-5.01-4.99-4.24-9.7.75-4.59 7.73-35.24 12.2-55.45 1.23-5.58 2.27-10.37 2.94-13.59.63-3.06 0-6.24-2.94-7.67-1-.48-2.26-.76-3.83-.76-2.87 0-7.92 1.54-12.08 2.72-.43.12-.39.62-.08.85 1.12.82 1.94 2.85 1.94 4.77 0 1.81-2.23 13.01-5.16 26.83-4.46-.21-8.77.27-12.84 1.36-16.71 4.47-29.11 19.19-29.11 37.97.01 10.4 5.24 17.38 13.03 17.38zm16.09-44.38c3.41-2.83 7.29-4.54 11.22-4.82-2.34 10.81-4.96 22.73-6.59 30.06-1.33 1.44-2.94 2.97-4.63 4.23-2.1 1.56-4.33 2.7-6.33 2.7-2.18 0-4.89-1.09-4.89-6.21-.01-11.17 4.73-20.58 11.22-25.96z"/><path d="m48.7 113.38c14.81-3.28 25.12-10.71 28.63-19.75.87-2.23 1.32-4.56 1.32-6.94 0-2.19-.46-4.29-1.32-6.24-3.2-7.22-11.99-12.35-24.03-12.35-4.95 0-9.98.83-14.86 2.31-13.54 4.1-26.04 13.14-33.19 23.17-.84 1.18-.34 2.11.67 1.4 10.43-7.48 22.03-13.42 32.52-15.29 2.26-.4 4.48-.62 6.62-.62 9.74 0 14.13 4.84 14.13 10.22 0 8.22-6.74 16.68-20.74 20.22-.99.25-2.02.48-3.08.68l3.08-12.87 2.51-10.5c-.87.13-1.7.27-2.51.41-11.05 1.91-16.9 4.85-19.77 15.84-3.63 13.87-11.82 48.35-12.95 52.71-1.05 4.07-2.94 5.65-5.57 7.19-.19.11-.18.36.03.38 5.78.47 19.73.7 25.02.7 4.82 0 9.23-.31 13.24-.87 24.78-3.5 34.6-16.99 34.6-30.37-.02-11.28-10.02-18.59-24.35-19.43zm-10.26 40.75c-3.88 1.75-8.58 2.66-14.11 2.26l8.99-37.63c1.84-.07 3.55-.04 5.13.1 9.5.83 14.11 5.47 14.11 13.68-.01 7.88-4.61 17.29-14.12 21.59z"/><path d="m132.04 127.81c0-3.25-.64-6.25-1.83-8.88-2.67-5.88-8.16-9.88-15.65-10.55-3.72-.34-7.25-.06-10.55.71-13.6 3.16-23.29 14.75-26.68 26.89-.87 3.1-1.32 6.25-1.32 9.29 0 2.74.45 5.31 1.32 7.64 2.44 6.56 8.15 11.13 16.17 11.8 3.72.31 7.23.03 10.5-.72 13.11-3 22.45-13.6 26.2-25.1 1.21-3.68 1.84-7.44 1.84-11.08zm-28.04 27.22c-1.6 1.45-3.29 2.28-4.97 2.28-3.3 0-5.76-2.55-5.44-9.76.55-12.33 4.95-24.53 10.41-29.38 1.58-1.4 3.24-2.18 4.93-2.18 3.52 0 5.62 2.65 5.51 9.79-.2 11.55-4.83 24.19-10.44 29.25z"/><path d="m240.86 173.89c-6.53 3.31-15.99 6.46-24.88 7.46-1.89.21-3.75.33-5.55.33-25.47 0-33.12-13.47-31.52-28.21 1.52-13.93 7.22-29.05 7.22-36.13 0-6.11-3.4-9.2-8.01-9.2-7.13 0-16.74 5.52-21.42 9.5.55-2.85.89-4.83.89-5.37 0-2.83-1.87-4.14-5.35-4.14-3.17 0-10.11 1.85-14.05 3.05 1.09.33 1.64 2.5 1.64 4.25 0 6.13-4.74 29.66-9.63 43.56-.61 1.74-1.22 3.32-1.83 4.71.63.05 1.24.1 1.83.14 13.83.95 15.85-1.76 17.64-7.78 1.69-5.66 4.71-18.67 6.93-29.06 2.4-2.58 8.14-6.66 11.14-6.66 1.65 0 2.33 1 2.33 2.5 0 5.22-5.23 21.55-6 31.26-1.85 23.75 16.63 36.47 39.88 36.47 4.57 0 9.22-.56 13.84-1.7 9.05-2.22 17.98-6.64 25.89-13.34.95-.78.16-2.21-.99-1.64z"/><path d="m392.33 150.45c1.32-8.04 7.82-36.32 12.08-55.34 1.17-5.22 2.17-9.75 2.85-12.97.86-3.98 0-7.1-2.85-8.45-.99-.46-2.22-.72-3.69-.72-2.8 0-7.61 1.47-11.79 2.63-.55.15-.47.82-.12 1.11 1.05.87 1.65 2.38 1.65 4.31 0 5.3-7.98 38.25-12.48 59.1-1.34 6.21-2.37 11.35-2.79 14.36-.67 4.76.62 7.62 2.79 9.1 1.32.9 2.97 1.29 4.7 1.29 4.76 0 10.12-1 14.62-3.72.34-.21.36-.94.05-1.11-3.37-1.78-5.78-4.98-5.02-9.59z"/><path d="m299.63 108.98c-14.05-1.59-17.35 4.95-18.53 10.58-2.11 10.06-4.31 19.83-5.81 26.54-2.44 2.59-7.59 6.51-10.55 6.51-1.64 0-2.33-.97-2.33-2.47 0-3.76 8-33.69 8-37.87 0-2.83-1.87-4.14-5.34-4.14-2.9 0-9.41 1.56-13.49 2.74-.36.11-.36.59-.1.83.87.83 1.18 2.38 1.18 3.72 0 6-2.46 16.1-4.61 24.84-1.67 6.78-3.16 12.75-3.16 15.34 0 3.64 1.2 6.23 3.16 7.72 1.32 1.01 2.97 1.52 4.83 1.52 6.99 0 15.71-5.37 20.38-9.33-.89 6.81 3.29 9.45 7.67 9.45 4.84 0 9.28-1.12 13.84-3.93.28-.18.34-.76.1-.88-3.52-1.75-5.05-4.99-4.28-9.71.57-3.61 5.01-23.36 9.04-41.46z"/><path d="m451.2 121.06c0-7.88-5.46-12.92-15.27-12.92-2.79 0-5.48.36-8.05 1.04-10.59 2.79-19.11 10.93-23.47 21.07-2.04 4.76-3.17 9.95-3.17 15.25 0 4.71 1.09 8.75 3.17 11.9 3.11 4.71 8.41 7.44 15.57 7.44 2.8 0 5.45-.33 7.9-.94 8-1.99 14-7 17.13-13.57.5-1.05 0-1.82-1.33-.94-5.34 3.5-11.03 5.25-15.26 5.25-.18 0-.36 0-.53-.01-5.08-.18-8.91-3.04-9.21-9.93 2.97-.31 6.11-.98 9.21-1.96 11.87-3.71 23.31-11.88 23.31-21.68zm-32.26 18c1.05-8.65 4.79-16.56 8.94-20.75 1.97-1.98 4.03-3.14 5.95-3.14 1.76 0 2.99 1.22 2.99 3.19 0 5.59-3.2 11.83-8.94 16.22-2.51 1.92-5.51 3.48-8.94 4.48z"/><path d="m365.67 150.45c1.37-8.16 8.05-37.19 12.3-56.21 1.09-4.86 2.02-9.06 2.66-12.1.83-3.89.03-6.96-2.66-8.35-1.02-.53-2.3-.81-3.88-.81-2.8 0-7.64 1.47-11.83 2.63-.55.15-.48.82-.13 1.11 1.05.87 1.65 2.38 1.65 4.31 0 6.31-11.28 51.81-14.56 69.42-.3 1.59-.53 2.95-.68 4.04-.4 2.85-.09 5.02.68 6.62 1.3 2.69 3.94 3.77 6.82 3.77 4.75 0 10.09-1 14.61-3.72.34-.21.36-.94.05-1.11-3.35-1.79-5.79-4.99-5.03-9.6z"/><path d="m349.22 125.68c.55-1.49.86-3.03.86-4.62 0-1.81-.29-3.47-.86-4.96-1.89-4.97-6.87-7.96-14.42-7.96-2.78 0-5.47.36-8.04 1.04-15.56 4.1-26.65 19.73-26.65 36.32 0 11.73 6.81 19.34 18.75 19.34 2.8 0 5.44-.33 7.9-.94 8-1.99 14-7 17.13-13.57.5-1.05 0-1.82-1.34-.94-5.34 3.5-11.04 5.25-15.23 5.25-.19 0-.38 0-.56-.01-5.09-.19-8.91-3.05-9.21-9.93 2.97-.31 6.11-.98 9.21-1.96 9.95-3.11 19.6-9.35 22.46-17.06zm-31.41 13.38c1.04-8.65 4.79-16.55 8.94-20.74 1.97-1.99 4.03-3.14 5.94-3.14 1.76 0 3 1.22 3 3.19 0 5.59-3.2 11.83-8.94 16.21-2.51 1.91-5.51 3.48-8.94 4.48z"/></g></svg>