<svg xmlns="http://www.w3.org/2000/svg" width="124.59mm" height="26.82mm" viewBox="0 0 353.17 76.01"><defs><style>.cls-1{fill:#3a3a3a;}</style></defs><g id="Ebene_2" data-name="Ebene 2"><g id="Ebene_1-2" data-name="Ebene 1"><path class="cls-1" d="M45.11,1.27a34.26,34.26,0,0,0-4-1.25l-.08,0L34.74,6.56l2.51,2.56,4.77-5,.42.13a29.32,29.32,0,0,1,20,28.32A29.39,29.39,0,0,1,33.09,61.5h0A29.39,29.39,0,0,1,12.53,11.15a28.94,28.94,0,0,1,11.2-6.86l.42-.13,9.08,9.75,8.88,8.7A13.09,13.09,0,0,1,33.22,45.2H33a13.09,13.09,0,0,1-8.89-22.59l7.27-7.13-2.61-2.69-7.43,7.3a16.84,16.84,0,0,0,23.59,24,16.86,16.86,0,0,0,0-24L33,8.39,25.09,0,25,0a34.26,34.26,0,0,0-4,1.25A33.09,33.09,0,1,0,55.79,56.2,33.1,33.1,0,0,0,45.11,1.27Z"/><path class="cls-1" d="M247.21,28.37,246.12,27a16.79,16.79,0,0,0-12.37-5.51,15.08,15.08,0,0,0-11.28,4.88A16.43,16.43,0,0,0,217.81,38a16.5,16.5,0,0,0,33,0V0h-3.69ZM243.33,47a12.63,12.63,0,0,1-7.13,3.61l-.62.07c-.41,0-.84.06-1.27.06A12.84,12.84,0,0,1,221.54,38a12.79,12.79,0,0,1,25.57,0A12.38,12.38,0,0,1,243.33,47Z"/><path class="cls-1" d="M348.33,26.42A16.49,16.49,0,0,0,320.18,38V76h3.69V47.33l1.67,1.89a15.49,15.49,0,0,0,23,.44A16.45,16.45,0,0,0,353.17,38,15.88,15.88,0,0,0,348.33,26.42ZM346,46.75l-.29.29a12.52,12.52,0,0,1-6.29,3.49c-.4.08-.79.15-1.17.19a13.48,13.48,0,0,1-1.53.09A12.89,12.89,0,0,1,323.87,38a12.38,12.38,0,0,1,3.78-9,12.52,12.52,0,0,1,9-3.74A12.86,12.86,0,0,1,349.44,38,12.23,12.23,0,0,1,346,46.75Z"/><path class="cls-1" d="M111.48,24.29a16.36,16.36,0,0,0-22.63,4.84,15.68,15.68,0,0,0-2.29,12.26,16.18,16.18,0,0,0,7.18,10.28,15.79,15.79,0,0,0,8.76,2.68,17.55,17.55,0,0,0,3.41-.35,15.73,15.73,0,0,0,9.48-5.85l.28-.35-3.11-2-.23.29a12.32,12.32,0,0,1-7.18,4.39,12.08,12.08,0,0,1-9.44-1.8A12.35,12.35,0,0,1,90.27,41L90,39.82l28.8,0h.07l0-.36a15.78,15.78,0,0,0-1.34-8.09A16.38,16.38,0,0,0,111.48,24.29ZM90,36.15l.33-1.2a13.44,13.44,0,0,1,1.65-3.81,12.43,12.43,0,0,1,8-5.52,12.1,12.1,0,0,1,9.56,1.75A12.35,12.35,0,0,1,114.91,35l.29,1.19Z"/><path class="cls-1" d="M184.47,24.29a16.35,16.35,0,0,0-22.62,4.84,15.6,15.6,0,0,0-2.29,12.26,16.2,16.2,0,0,0,7.17,10.28,15.8,15.8,0,0,0,8.77,2.68,17.45,17.45,0,0,0,3.4-.35,15.75,15.75,0,0,0,9.49-5.85l.27-.35-3.11-2-.23.29a12.29,12.29,0,0,1-7.17,4.39,12.11,12.11,0,0,1-9.44-1.8A12.35,12.35,0,0,1,163.27,41L163,39.82l28.79,0h.07l0-.36a15.68,15.68,0,0,0-1.35-8.09A16.25,16.25,0,0,0,184.47,24.29ZM163,36.15l.33-1.21.15-.53a12.8,12.8,0,0,1,1.5-3.27,12.44,12.44,0,0,1,8-5.52,12.09,12.09,0,0,1,9.55,1.75A12.37,12.37,0,0,1,187.91,35l.28,1.19Z"/><path class="cls-1" d="M309,29.26l-3,2.14-.05,0,.15.31A15.89,15.89,0,0,1,307.57,38a12.3,12.3,0,0,1-3.76,9,12.45,12.45,0,0,1-9,3.72A12.77,12.77,0,0,1,282.13,38a12.17,12.17,0,0,1,3.76-9,13.91,13.91,0,0,1,9-3.76h.73c3.56,0,6.27,1,8.08,3l.3.33,2.38-2.57-.28-.27a15.31,15.31,0,0,0-11.26-4.21c-5,.4-8.67,1.94-11.56,4.84A15.8,15.8,0,0,0,278.43,38a16.41,16.41,0,0,0,32.81,0,18.33,18.33,0,0,0-2.07-8.36Z"/><path class="cls-1" d="M205,25.73a13.12,13.12,0,0,0-4.12,9.5V53.86h3.69V35.23a10,10,0,0,1,7-9.49l.28-.09V21.88l-.5.13A13.6,13.6,0,0,0,205,25.73Z"/><path class="cls-1" d="M265.12,25.73a13.11,13.11,0,0,0-4.11,9.5V53.86h3.69V35.23a10,10,0,0,1,7-9.49l.29-.09V21.88l-.5.13A13.63,13.63,0,0,0,265.12,25.73Z"/><polygon class="cls-1" points="139.14 45.67 128.13 22.51 128.02 22.28 123.45 22.28 137.03 50.62 138.69 53.99 138.71 54.03 139.5 54.12 155.17 22.39 155.22 22.28 150.66 22.28 139.14 45.67"/></g></g></svg>