<?xml version="1.0" encoding="UTF-8"?>
<!-- Generator: Adobe Illustrator 24.3.0, SVG Export Plug-In . SVG Version: 6.00 Build 0)  -->
<svg version="1.1" id="layer" xmlns="http://www.w3.org/2000/svg" xmlns:xlink="http://www.w3.org/1999/xlink" x="0px" y="0px" viewBox="0 0 600.1 135.9" style="enable-background:new 0 0 600.1 135.9;" xml:space="preserve">
<style type="text/css">
	.st0{fill:#91C11E;}
	.st1{fill:#659A41;}
	.st2{fill:#FFFFFE;}
</style>
<path class="st0" d="M401,21.6h-32.3c-1.7,0-3.1,1.3-3.1,3v81c0,1.7,1.3,3,3.1,3h8.6c1.7,0,3.1-1.3,3.1-3V71.5  c0-0.6,0.6-1.2,1.2-1.2h13.5c1.7,0,3.1-1.3,3.1-3v-6.4c0-1.7-1.3-3-3.1-3h-13.5c-0.6,0-1.2-0.6-1.2-1.2V35.4c0-0.6,0.6-1.2,1.2-1.2  h19.5c1.7,0,3.1-1.3,3.1-3v-6.5C404,22.9,402.7,21.6,401,21.6 M431.4,60.9h-4.5c-0.6,0-1.2-0.6-1.2-1.2V34.9c0-0.6,0.6-1.2,1.2-1.2  h4.5c6.6,0,8.6,3,8.6,13.6S438,60.9,431.4,60.9z M444.2,71.6c-0.2-0.7,0.1-1.4,0.7-1.7c6.7-3.5,9.5-8.7,9.5-22.3  c0-14.8-3.4-26-20.6-26h-19.7c-1.7,0-3.1,1.3-3.1,3v81c0,1.7,1.3,3,3.1,3h8.6c1.7,0,3.1-1.3,3.1-3V73.7c0-0.6,0.6-1.2,1.2-1.2h2.8  c0.7,0,1.3,0.5,1.6,1.2l8.7,32.1c0.5,1.7,2.1,2.9,3.9,2.9h8.2c1.6,0,2.6-1.4,2.2-2.9L444.2,71.6L444.2,71.6z M497.4,95.8h-20  c-0.6,0-1.2-0.6-1.2-1.2V71c0-0.6,0.6-1.2,1.2-1.2h12.9c1.7,0,3.1-1.3,3.1-3v-6.1c0-1.7-1.3-3-3.1-3h-12.9c-0.6,0-1.2-0.6-1.2-1.2  V35.6c0-0.6,0.6-1.2,1.2-1.2h19c1.7,0,3.1-1.3,3.1-3v-6.6c0-1.7-1.3-3-3.1-3h-31.7c-1.7,0-3.1,1.3-3.1,3v81c0,1.7,1.3,3,3.1,3h32.7  c1.7,0,3.1-1.3,3.1-3v-7C500.4,97.1,499.1,95.8,497.4,95.8 M533,59.8c-7.7-7.5-12.9-12.4-12.9-19.2c0-4.5,2.2-8.1,7.1-8.1  c4.7,0,7.1,3.1,7.1,11.9v2.5c0,1.2,1.1,2.3,2.3,2.3h8.6c1.5,0,2.7-1.2,2.7-2.7v-2.7c0-16.3-7.8-23.6-20.7-23.6  c-14.9,0-21.2,10-21.2,21.1c0,12.4,8,20.4,15.3,27.4c7.5,7,13.6,12.4,13.6,20.5c0,6.5-3.9,8.3-7.8,8.3c-5.8,0-8.1-3.9-8.1-10.6V82  c0-1.7-1.3-3-3.1-3h-7.5c-1.7,0-3.1,1.3-3.1,3v6c0,12.9,8.3,22.2,21.8,22.2c12.8,0,21.8-8.6,21.8-22.1C549,76.1,542.1,68.6,533,59.8   M597,21.6h-8.4c-1.7,0-3.1,1.3-3.1,3V57c0,0.6-0.6,1.2-1.2,1.2h-13.1c-0.6,0-1.2-0.6-1.2-1.2V24.6c0-1.7-1.3-3-3.1-3h-8.4  c-1.7,0-3.1,1.3-3.1,3v81c0,1.7,1.3,3,3.1,3h8.4c1.7,0,3.1-1.3,3.1-3V72.2c0-0.6,0.6-1.2,1.2-1.2h13.1c0.6,0,1.2,0.6,1.2,1.2v33.4  c0,1.7,1.3,3,3.1,3h8.4c1.7,0,3.1-1.3,3.1-3v-81C600.1,22.9,598.8,21.6,597,21.6 M341.1,95.7c-0.9,1.7-1.9,2.8-2.9,3.5  c-0.5,0.3-1.3,0.6-2.2,0.6c-0.8,0-1.5-0.3-2-0.8c-7.4-8-7.4-38.4-0.1-51c2.5-4.2,5.7-4.7,6.9-4.7c0.2,0,0.4,0,0.6,0  c1.9,0.2,3.5,3,3.9,3.8C350.9,58.4,347.6,84.4,341.1,95.7z M291.8,58.8c0-26.6,4.3-41,7.5-44.4c0.4-0.4,0.7-0.6,1-0.6  c0.8,0,2,2.2,2.1,8.3c0,0,0,0.6,0,0.7c0,8.3-1,16.8-2.9,25.4c-2.3,10.3-6.4,19-7.3,20.7C291.9,65.7,291.8,62.3,291.8,58.8z   M261.1,16.4c0.5-0.5,0.9-0.7,1.2-0.7c0.1,0,0.3,0,0.7,0.4c1.2,1.4,2.5,6.1,1.2,15.2c-3.5,25.1-10.7,35.9-10.7,35.9  C252.8,38.5,256.9,20.7,261.1,16.4z M206.1,69.6v-0.2c2.9-19.5,7.3-26.5,10.5-26.5c1.1,0,2,0.9,2.5,1.7c3.6,5.3,3.5,13.7-0.2,19.6  c-3,4.6-7.4,5.6-10.7,5.6c-0.7,0-1.4,0-2-0.1L206.1,69.6z M347.2,36.8c-2.8-1.5-5.5-2.2-8.1-2.2c-2.7,0-5.4,0.8-8.2,2.4  c-7.7,4.4-12.4,14.5-14.8,29.9c-3.1,14.9-11,29.4-14.9,29.4c-3.3,0-5.9-5.8-7.5-14.1c8-14.9,13.9-34.6,15.7-51.9  c0.3-3.1,0.5-6,0.5-8.7v-0.3c-0.3-13.9-6.3-19.1-11.8-19.4c-0.1,0-0.2,0-0.3,0c-2.6,0-5.3,1.6-7.8,4.6c-4.9,5.9-8.6,16.4-10.4,29.5  c-0.9,6.6-1.3,13.7-1.2,21.2l0,0c-0.2,10.2,0.7,19.4,2.5,27c0.2,1.3,0.4,2.6,0.6,3.9v0.1l-0.1,0.1c-3.3,4-6.7,7.1-9.8,8.9l-0.6,0.4  l0,0l-0.4,0.3l-0.1-0.1l-0.5,0.3c-1.4,0.7-2.8,1-4,1h-0.1c-5.1-0.1-8.9-6.7-11.1-19.5v-0.1l0.2-0.4c8.1-14.2,12.3-28.5,12.4-29.1  l0.2-0.9c5.5-18.2,5.6-33.5,0.2-41.1c-1.9-2.7-4.4-4.2-7.2-4.3c-0.1,0-0.3,0-0.4,0c-3.4,0-6.5,1.6-9.2,4.8  c-10.2,11.9-13.5,42.1-8.3,77v0.1l-0.1,0.1c-3.6,4.2-7.4,7.6-11.4,10c-5,3-9,3.6-10.9,3.8c-0.3,0-0.5,0-0.8,0c-3,0-5.6-1.1-7.6-3.2  c-3.5-3.6-5.6-10.8-5.6-20.3v-0.2h0.2c1.9,0.4,3.8,0.6,5.5,0.6c6.5,0,12-2.4,15.8-6.9c3.3-3.8,5.1-9.2,5.1-14.6  c0-12.6-8.2-18.3-15.9-18.3c-3.5,0-8.8,1.1-13.7,6.4c-4.5,4.8-7.7,12-9.6,21.4v0.2l-0.2-0.1c-2.1-1.1-5.4-2.8-9.8-4.6h-0.1v-0.5  c0.2-9.4,0.5-19.3,0.8-29c0.2-6.7,0.4-13.6,0.6-20.3c0.1-3-0.6-5.3-2.2-7c-2.4-2.6-6.3-3.1-9.1-3.1c-1.2,0-2.1,0.1-2.7,0.2  c-0.7,0.1-1.2,0.7-1.1,1.4c0.9,7.5,1.2,29.8,0.8,54.1v0.2h-0.2c-1.8-0.4-3.5-0.7-5.2-0.9l-0.5-0.1c-4-0.6-7.7-0.9-11.1-1  c-0.9,0-1.8,0-2.7,0c-0.2,0-0.8,0-1.3,0v-0.2c0.5-14.1,1.3-27.3,1.3-27.4c0.1-3.1-0.6-5.5-2.3-7.3c-2.5-2.7-6.6-3.2-9.5-3.2  c-1.2,0-2.1,0.1-2.7,0.2c-0.8,0.1-1.3,0.7-1.2,1.5c0.5,5.3,0.8,21.6,0.7,37.8v0.1h-0.1c-5.6,1.2-10.3,2.8-12.5,3.6  c-1.2,0.4-2.9,1.2-5.1,2.2c-3.7,1.7-3.8,5.8-2.9,8.8c0.6,2,1.9,3.2,2,3.4c0.4,0.3,0.8,0.5,1.3,0.5c0.2,0,0.5,0,0.7-0.1  c0.5-0.2,3.7-1.6,4.7-2c0.3-0.2,0.7-0.3,1.1-0.5c0.3-0.1,0.5-0.2,0.8-0.3l0.6-0.2c0.5-0.2,1-0.4,1.6-0.6c0.9-0.3,1.8-0.7,2.7-1.1  c1.4-0.6,2.8-1.2,4.6-1.8l0.2-0.1v0.3c-0.1,2.1-0.1,4.1-0.2,6.1c-0.4,10.8-1.1,44.7-1.1,46.1c-0.3,6.5,0.7,10.9,3.1,13.4  c2.7,2.8,6.7,2.8,9.6,2.8h1.8c0.4,0,0.7-0.2,1-0.4c0.2-0.3,0.3-0.6,0.3-1c-1.6-12.7-1.2-46.1-0.9-59.9c0-3,0-6.4,0.1-10.2v-0.2h0.2  c1.7-0.2,3.2-0.4,4.7-0.5c2.3-0.2,4.7-0.3,7.2-0.3c1.5,0,3.2,0,4.8,0.1h0.3c0.3,0,0.6,0,0.8,0l0.7,0.1c0.7,0.1,1.5,0.2,2.3,0.3h0.2  l-0.1,2.4c-0.2,8.9-0.5,21.2-0.8,28.9c-0.3,6.2,0.7,10.4,3,12.8c2.4,2.5,5.7,2.7,9.2,2.7h1.6c0.4,0,0.8-0.2,1-0.5  c0.2-0.3,0.4-0.6,0.3-1c-1-7.7-1.4-23.3-1.2-41.9V67l0.2,0.1c4.4,1.6,7.7,3.2,8.9,3.8l0.1,0.1v0.1c-0.7,13.2,2.2,24.1,8.3,30.6  c4.1,4.4,9.4,6.7,15.3,6.7c8.1,0,15.9-3.2,23.1-9.5c2.6-2.2,4.4-4.2,5.6-5.5l0.2-0.2l0.2,0.5c3.5,9.4,9.7,14.8,16.9,14.8  c0.1,0,0.1,0,0.3,0c0.6,0,1.3,0,2-0.1c0.1,0,0.1,0,0.2,0c2.2-0.3,4.5-0.9,6.8-1.9l0.1-0.1c0.6-0.3,1.1-0.5,1.7-0.8  c0.4-0.2,0.8-0.4,1.3-0.7c0.1-0.1,0.5-0.3,0.6-0.3c4.1-2.6,7.1-5.7,9-7.9l0.2-0.2l0.1,0.3c1.6,3.4,3.6,6.2,5.9,8.1  c8,8.2,18.4,3.8,26.9-18.8l0,0c1.8,10.1,5.6,19.9,15.2,21.9c1.4,0.4,2.9,0.6,4.5,0.6s3.2-0.2,4.8-0.6c6.8-1.9,14.7-12.9,16.9-33.1  C360.1,60.8,358,42.5,347.2,36.8L347.2,36.8z"/>
<path id="Fill-8" class="st0" d="M92.8,30.3c0,0.2,1.2,1.2,1.7,2.2c0.6,1,1.1,1.8,1.2,2.8c0.1,0.6-0.1,0.9-0.4,0.9  c-1.7,0-9.7-12.3-25.7-16.7c-9-2.5-21.5-3.4-31.8,0.1c-8.9,3-16.7,8.6-22.7,15.7c-6.8,8-11.2,17.6-12,28.1c-0.4,4.3,0,8.8-0.8,13.1  c-0.2,1.1-0.6,2.1-0.9,3.1c-0.2,0.5-1.7,5,1.3,11.1c2.9,5.8,11.8,6.7,12.6,4.1c0.8-2.4,2-2.9,2.9-2.9c1.3,0,2.1,1.3,2.8,1.6  c45.5,21,79.7-30.4,79.7-30.4c0.6-3.5,0.9-7,0.9-10.5c0-3.2-0.1-6.4,0.3-9.6c0.4-3,0.5-5.9-0.9-8.6c-1-1.9-2.8-3-4.8-3.6  C95.7,30.5,92.8,29.5,92.8,30.3z"/>
<path id="Fill-9" class="st1" d="M18.3,91.8c-1,0-2.2,0.5-2.9,2.9c-0.8,2.6-9.7,1.7-12.6-4.1C-0.3,84.5,1.3,80,1.5,79.4  c-0.1,0.3-0.2,0.4-0.2,0.6c0.1-0.2,0.1-0.4,0.2-0.6c-0.1,0.2-0.1,0.4-0.2,0.6c-0.2,0.6-0.4,1.1-0.6,1.7c-0.1,0.3-0.2,0.6-0.2,0.9  c0,0.1,0,0.2-0.1,0.3c-0.1,0.3-0.1,0.7-0.2,1c0-0.3,0.1-0.7,0.2-1c-0.4,1.9-0.5,3.9-0.1,5.8c1,5.3,4.9,8,9.8,9.5  c3.2,0.9,6.3,1.8,9.2,3.4c2.6,1.5,5.2,3.1,8,4.3c12,5.1,26,4.7,38.1,0.2c12.4-4.6,23-13.4,29.2-25.1c3-5.6,5-11.7,6-18  c0,0-34.2,51.4-79.7,30.4C20.4,93.1,19.6,91.8,18.3,91.8z"/>
<path id="Fill-11" class="st2" d="M39.2,36.5c-0.5,0.2-4.7-5.8-2.6-7c13.8-7.7,35.1-3,45.5,3.6c0.8,0.5,1.2,0.8,1.2,0.9  C84.5,36.2,59.9,28.7,39.2,36.5"/>
</svg>