<svg enable-background="new 0 0 100 59.93" viewBox="0 0 100 59.93" xmlns="http://www.w3.org/2000/svg"><g clip-rule="evenodd" fill="#253062" fill-rule="evenodd"><path d="m43.49 1.34c0-.95-.62-1.34-1.41-1.34h-4.94c-1.97 0-3.36.98-3.36 3.38v42.35c0 .94.62 1.34 1.41 1.34h4.93c1.97 0 3.36-.98 3.36-3.39z"/><path d="m99.61 16.83c.19-.41.39-.8.39-1.2 0-.8-.58-1.19-1.38-1.19h-6c-1.2 0-1.74.42-2.18 1.4l-8.46 18.77-11.8-18.58c-.73-1.15-1.5-1.59-3.25-1.59h-7.13c-1.49 0-2.27.39-3.16 1.34l-12.55 13.48 11.27 16.41c.65.94 1.2 1.39 2.18 1.39h6.71c1 0 1.59-.4 1.59-1.24 0-.52-.25-.86-.59-1.34l-9.89-14.64 7.51-8.09 14.83 21.92-6.55 13.86c-.18.41-.39.81-.39 1.19 0 .8.58 1.19 1.39 1.19h5.95c1.21 0 1.73-.42 2.18-1.39z"/><path d="m12.08 25.72c-1.97-.44-2.58-.99-2.58-2 0-.77.61-1.38 2.39-1.38h14.4c2.4 0 3.37-1.4 3.37-3.36v-3.13c0-.79-.39-1.42-1.33-1.42h-16.87c-7.52.01-11.46 4.36-11.46 9.9 0 4.93 3.03 7.93 9.09 9.29l9.67 2.17c1.97.44 2.58 1 2.58 2 0 .77-.61 1.39-2.39 1.39h-15c-2.4 0-3.38 1.39-3.38 3.36v3.13c0 .79.39 1.42 1.34 1.42h16.46c8.89 0 12.48-4.36 12.48-9.51 0-5.33-3.08-8.33-9.1-9.67z"/></g></svg>